<svg xmlns="http://www.w3.org/2000/svg" width="180" height="140" viewBox="0 0 180 140">
    <defs>
        <style>
            .prefix__cls-2{fill:#1a1311}
        </style>
    </defs>
    <g id="prefix__strive_logo" data-name="strive logo" transform="translate(-990 -3445)">
        <path id="prefix__Rectangle_10567" d="M0 0H180V140H0z" data-name="Rectangle 10567" transform="translate(990 3445)" style="fill:none"/>
        <g id="prefix__Group_7947" data-name="Group 7947" transform="translate(805.85 3378.895)">
            <path id="prefix__Path_6419" d="M219.331 121.277a.526.526 0 0 0-.4-.172h-11.45c-6.776 0-10.978 2.728-11.833 7.777a7.228 7.228 0 0 0 1.062 5.644c1.375 1.893 3.907 3.177 7.523 3.711l1.547.261c4.1.6 5.522 1.727 5.2 4.025-.359 2.553-2.772 4.018-6.712 4.018h-14.917a.164.164 0 0 0-.162.141l-.037.263a.164.164 0 0 0 .138.185c.551.079 3.283.612 2.983 3.291l-.061.431a.45.45 0 0 0 .1.364.506.506 0 0 0 .391.167h10.8c7.587 0 12.633-3.163 13.41-8.463a6.924 6.924 0 0 0-1.755-6.133c-1.524-1.565-4.029-2.611-7.444-3.108l-1.55-.262c-3.735-.564-5-1.682-4.68-3.981.449-3.2 4.137-3.49 5.7-3.49h11.088a.635.635 0 0 0 .628-.507l.534-3.8a.443.443 0 0 0-.103-.362z" class="prefix__cls-2" data-name="Path 6419"/>
            <path id="prefix__Path_6420" d="M305.27 121.269a.537.537 0 0 0-.415-.164h-23.909a.606.606 0 0 0-.637.515l-.535 3.808a.457.457 0 0 0 .1.374.537.537 0 0 0 .415.164h8.757a.219.219 0 0 1 .155.044.157.157 0 0 1 .02.126l-3.472 24.705a.457.457 0 0 0 .1.374.537.537 0 0 0 .415.164h4.821a.606.606 0 0 0 .637-.515l3.472-24.705c.019-.135.094-.193.25-.193h8.756a.606.606 0 0 0 .637-.515l.535-3.808a.457.457 0 0 0-.102-.374z" class="prefix__cls-2" data-name="Path 6420" transform="translate(-57.192)"/>
            <path id="prefix__Path_6421" d="M383.192 130.334a8.019 8.019 0 0 0-1.979-6.289 9.914 9.914 0 0 0-7.568-2.94h-17.172a.164.164 0 0 0-.162.141l-.043.308a.164.164 0 0 0 .139.185c.623.089 3.713.685 3.323 3.737l-3.565 25.365a.457.457 0 0 0 .1.374.536.536 0 0 0 .414.164h4.821a.606.606 0 0 0 .637-.515l1.612-11.467c.019-.136.094-.194.249-.194h5.656l4.932 11.676a.679.679 0 0 0 .755.5h4.99a.565.565 0 0 0 .492-.243.45.45 0 0 0 .01-.449l-5.167-12.173a9.821 9.821 0 0 0 7.526-8.18zm-5.974.032c-.344 2.454-2.5 3.978-5.631 3.978h-6.932a.217.217 0 0 1-.155-.044.159.159 0 0 1-.02-.126l1.126-8.014c.019-.135.093-.193.249-.193h6.932a4.7 4.7 0 0 1 3.635 1.412 3.638 3.638 0 0 1 .796 2.986z" class="prefix__cls-2" data-name="Path 6421" transform="translate(-105.405)"/>
            <path id="prefix__Path_6422" d="M607.765 121.269a.536.536 0 0 0-.415-.164h-24.991a.164.164 0 0 0-.163.141l-.037.262a.164.164 0 0 0 .138.185c.563.081 3.355.626 2.972 3.395l-3.619 25.753a.454.454 0 0 0 .1.374.535.535 0 0 0 .415.164h20.956a.606.606 0 0 0 .637-.515l.535-3.808a.455.455 0 0 0-.1-.373.535.535 0 0 0-.415-.164H588.43a.218.218 0 0 1-.155-.044.159.159 0 0 1-.02-.126l1.07-7.615c.019-.136.093-.194.249-.194h11.656a.606.606 0 0 0 .637-.515l.535-3.808a.455.455 0 0 0-.1-.374.536.536 0 0 0-.415-.164h-11.653a.218.218 0 0 1-.154-.044.156.156 0 0 1-.02-.126l1.033-7.35c.019-.135.094-.193.249-.193h15.348a.605.605 0 0 0 .637-.515l.535-3.808a.456.456 0 0 0-.097-.374z" class="prefix__cls-2" data-name="Path 6422" transform="translate(-247.718)"/>
            <path id="prefix__Path_6423" d="M527.511 121.308a.455.455 0 0 0-.421-.2h-9.746a.165.165 0 0 0-.162.141l-.037.261a.164.164 0 0 0 .032.123.16.16 0 0 0 .108.062 3.525 3.525 0 0 1 2.359 1.261 1.833 1.833 0 0 1-.018 1.689l-8.853 17.755a.1.1 0 0 1-.2-.024l-4.617-20.724a.587.587 0 0 0-.665-.544h-4.831a.537.537 0 0 0-.448.171.567.567 0 0 0-.078.423l6.459 29.172a.6.6 0 0 0 .609.508h5.08a.807.807 0 0 0 .727-.489l14.7-29.162a.459.459 0 0 0 .002-.423z" class="prefix__cls-2" data-name="Path 6423" transform="translate(-196.144)"/>
            <path id="prefix__Path_6424" d="M454.08 121.314a.491.491 0 0 0-.442-.209h-5.2a.728.728 0 0 0-.654.4l-14.718 29.174a.448.448 0 0 0 .429.7h5.2a.728.728 0 0 0 .653-.4l14.72-29.179a.49.49 0 0 0 .012-.486z" class="prefix__cls-2" data-name="Path 6424" transform="translate(-153.902)"/>
        </g>
    </g>
</svg>
