<?xml version="1.0" encoding="UTF-8"?> <svg xmlns="http://www.w3.org/2000/svg" width="1443" height="200" viewBox="0 0 1443 200"><defs><linearGradient id="footer-bg-a" x1=".5%" x2="66.005%" y1="101.5%" y2="-13.651%"><stop offset="0%" stop-color="#3023AE"></stop><stop offset="0%" stop-color="#3224AE"></stop><stop offset="100%" stop-color="#C86DD7"></stop></linearGradient></defs><g fill="none" fill-rule="evenodd" transform="matrix(-1 0 0 1 1878 0)"><path fill="url(#footer-bg-a)" d="M475,119.8148 C531.239696,138.011957 626.461947,147.110536 760.666755,147.110536 C921.152564,137.835721 1068.33283,114.728188 1202.20755,77.7879375 C1330.6038,35.2626458 1426.87741,14 1491.02839,14 C1587.25485,14 1728.60749,87.9792643 1855.88717,100.702691 C1900.18672,107.492913 1923.22433,110.960941 1925,111.106774 L1925,200 L475,200 L475,119.8148 Z" style="mix-blend-mode:multiply"></path><path fill="#E5F1FF" d="M0,119.330884 C105.120343,114.606932 219.855778,100.755605 344.206305,77.7769002 C454.974167,59.9445374 473.38981,8.99407464 642.129608,0.671906362 C810.869407,-7.65026191 983.41963,63.7169071 1099.48251,83.0945891 C1215.5454,102.472271 1310.31294,116.023378 1352.83912,119.330884 C1381.18991,121.535888 1413.57687,118.544376 1450,110.356349 L1450,200 L0,200 L0,119.330884 Z" style="mix-blend-mode:multiply"></path><path fill="#FE7235" d="M435,150.144531 C503.314941,50.0481771 577.983294,0 659.005056,0 C780.537701,0 1002.80774,150.144531 1213.56612,150.144531 C1424.32451,150.144531 1628.28555,-12.5546875 1804.78324,26.5976563 C1922.44837,52.6992188 2034.52063,63.8980779 2141,60.1942336 L2141,180 L435,180 L435,150.144531 Z" opacity=".699"></path><path fill="#07F" d="M435,117.840678 C500.16023,57.280226 567.17222,27 636.035969,27 C739.331593,27 901.589726,100.311664 983.073577,117.840678 C1064.55743,135.369692 1064.55743,140.924968 1201.71282,148.689848 C1338.8682,156.454727 1555.48729,64.2257466 1727.36031,57.5186214 C1775.76729,54.4254908 1828.31385,61.9840282 1885,80.1942336 L1885,200 L435,200 L435,117.840678 Z"></path></g></svg> 